<svg width="74" height="74" viewBox="0 0 74 74" fill="none" xmlns="http://www.w3.org/2000/svg">
<path d="M63.163 10.837C56.1745 3.84872 46.883 0 37 0C27.117 0 17.8255 3.84872 10.8371 10.837C3.84872 17.8253 0 27.1171 0 37C0 46.8832 3.84872 56.1747 10.837 63.163C17.8253 70.1513 27.1168 74 37 74C46.883 74 56.1745 70.1513 63.163 63.163C70.1513 56.1747 74 46.8832 74 37C74 27.1168 70.1513 17.8253 63.163 10.837Z" fill="#FD3018"/>
<path d="M74 37C74 27.1168 70.1513 17.8253 63.163 10.837C56.1745 3.84872 46.883 0 37 0V74C46.8832 74 56.1745 70.1513 63.163 63.163C70.1513 56.1747 74 46.8832 74 37Z" fill="#E61E14"/>
<path d="M40.066 37.0003L53.3109 23.7553C54.1575 22.9088 54.1575 21.536 53.3109 20.6894C52.4644 19.8428 51.0917 19.8428 50.245 20.6894L37 33.9344L23.755 20.6894C22.9085 19.8428 21.5358 19.8428 20.6891 20.6894C19.8426 21.5359 19.8426 22.9086 20.6891 23.7553L33.9341 37.0003L20.6891 50.2453C19.8426 51.0918 19.8426 52.4646 20.6891 53.3112C21.1124 53.7344 21.6673 53.946 22.222 53.946C22.7768 53.946 23.3317 53.7343 23.7549 53.3112L37 40.0662L50.245 53.3112C50.6683 53.7344 51.2232 53.946 51.778 53.946C52.3329 53.946 52.8878 53.7343 53.3109 53.3112C54.1575 52.4646 54.1575 51.0919 53.3109 50.2453L40.066 37.0003Z" fill="#F2F2F2"/>
<path d="M40.0659 37.0003L53.3109 23.7553C54.1574 22.9088 54.1574 21.536 53.3109 20.6894C52.4644 19.8428 51.0917 19.8428 50.245 20.6894L37 33.9344V40.0662L50.245 53.3112C50.6683 53.7344 51.2232 53.946 51.778 53.946C52.3329 53.946 52.8877 53.7343 53.3109 53.3112C54.1574 52.4646 54.1574 51.0919 53.3109 50.2453L40.0659 37.0003Z" fill="#D9D9D9"/>
</svg>
